<svg id="svg" version="1.1" xmlns="http://www.w3.org/2000/svg" xmlns:xlink="http://www.w3.org/1999/xlink" width="400" height="400" viewBox="0, 0, 400,400"><g id="svgg"><path id="path0" d="M62.000 42.382 C 50.026 44.939,44.456 51.143,42.035 64.624 C 41.302 68.708,41.448 331.316,42.186 335.200 C 44.635 348.090,50.599 354.492,62.400 356.899 C 64.905 357.410,333.946 357.565,336.400 357.057 C 345.139 355.248,351.564 350.787,354.471 344.512 C 355.679 341.904,355.923 341.173,356.906 337.200 C 357.550 334.596,357.826 66.702,357.188 63.600 C 356.229 58.943,355.853 57.709,354.539 54.914 C 351.319 48.061,345.108 43.744,336.200 42.167 C 330.631 41.182,66.653 41.389,62.000 42.382 M211.000 104.354 C 213.430 104.744,215.295 105.172,218.200 106.006 C 219.080 106.259,220.297 106.562,220.905 106.679 C 221.513 106.796,222.108 107.051,222.229 107.246 C 222.349 107.441,222.799 107.600,223.229 107.600 C 223.659 107.600,224.323 107.760,224.705 107.956 C 225.087 108.152,226.255 108.692,227.300 109.156 C 231.071 110.831,233.002 111.806,233.133 112.100 C 233.207 112.265,233.413 112.400,233.592 112.400 C 236.282 112.400,250.652 124.525,254.687 130.200 C 255.157 130.860,270.148 145.980,288.000 163.800 L 320.460 196.200 320.241 201.800 C 320.121 204.880,319.844 208.570,319.625 210.000 C 319.407 211.430,319.126 213.680,319.001 215.000 C 318.435 220.956,316.518 229.264,313.648 238.200 C 311.704 244.253,305.517 258.245,304.362 259.200 C 304.229 259.310,304.048 259.590,303.960 259.821 C 300.421 269.144,281.819 289.245,267.867 298.825 C 260.656 303.776,257.601 305.481,247.952 309.937 C 244.810 311.388,234.664 314.891,230.500 315.963 C 229.565 316.203,228.069 316.613,227.175 316.872 L 225.550 317.345 213.175 304.975 C 206.369 298.171,200.800 292.368,200.800 292.079 C 200.800 291.789,200.631 291.657,200.424 291.785 C 199.824 292.156,190.342 282.938,184.391 276.200 C 183.225 274.880,181.057 272.450,179.574 270.800 C 174.891 265.592,166.615 255.386,164.004 251.600 C 163.473 250.830,162.926 250.110,162.789 250.000 C 162.541 249.801,159.362 245.285,158.600 244.049 C 158.380 243.692,158.076 243.306,157.923 243.191 C 157.771 243.076,157.404 242.536,157.108 241.991 C 156.811 241.446,155.381 239.200,153.930 237.000 C 152.479 234.800,150.951 232.370,150.536 231.600 C 150.120 230.830,149.486 229.750,149.126 229.200 C 147.577 226.834,141.124 214.252,139.998 211.400 C 139.824 210.960,139.408 209.970,139.073 209.200 C 136.400 203.051,134.246 196.352,132.835 189.800 C 132.361 187.600,131.800 185.032,131.587 184.094 C 131.062 181.779,131.095 164.583,131.629 161.931 C 133.439 152.948,138.410 139.113,140.060 138.467 C 140.247 138.393,140.400 138.160,140.400 137.949 C 140.400 137.592,144.247 131.649,144.768 131.200 C 144.895 131.090,145.606 130.219,146.347 129.265 C 152.787 120.969,163.826 112.762,174.000 108.705 C 174.550 108.486,175.313 108.148,175.695 107.953 C 176.077 107.759,176.741 107.600,177.171 107.600 C 177.601 107.600,178.051 107.441,178.171 107.246 C 178.292 107.051,178.887 106.799,179.495 106.684 C 180.103 106.570,182.040 106.084,183.800 105.606 C 190.464 103.793,203.714 103.183,211.000 104.354 M193.600 123.200 L 192.200 123.495 193.800 123.524 C 194.680 123.541,196.120 123.405,197.000 123.223 L 198.600 122.892 196.800 122.899 C 195.810 122.902,194.370 123.038,193.600 123.200 M186.200 124.800 L 185.400 125.144 186.200 125.144 C 186.640 125.144,187.360 124.989,187.800 124.800 L 188.600 124.456 187.800 124.456 C 187.360 124.456,186.640 124.611,186.200 124.800 M183.800 125.600 C 183.029 125.931,183.031 125.945,183.876 125.972 C 184.358 125.987,184.864 125.820,185.000 125.600 C 185.292 125.127,184.901 125.127,183.800 125.600 M179.188 127.532 C 174.833 129.591,165.559 136.979,164.321 139.376 C 164.087 139.829,164.954 139.095,166.248 137.744 C 169.080 134.786,172.916 131.631,175.502 130.131 C 176.546 129.525,177.460 128.888,177.533 128.715 C 177.607 128.542,177.894 128.400,178.172 128.400 C 178.736 128.400,181.200 127.237,181.200 126.971 C 181.200 126.685,180.665 126.834,179.188 127.532 M196.545 132.500 C 190.840 138.407,189.137 142.082,188.994 148.800 L 188.913 152.600 189.199 148.800 C 189.740 141.617,191.575 138.020,197.923 131.700 C 200.100 129.533,200.089 129.531,203.189 132.500 L 205.800 135.000 203.212 132.300 C 200.006 128.956,199.967 128.957,196.545 132.500 M208.857 140.100 C 209.338 141.035,209.863 142.340,210.025 143.000 C 210.263 143.973,210.326 144.027,210.359 143.287 C 210.398 142.419,208.610 138.400,208.185 138.400 C 208.074 138.400,208.377 139.165,208.857 140.100 M162.672 141.309 L 161.945 142.600 162.819 141.742 C 163.301 141.270,163.628 140.689,163.547 140.451 C 163.466 140.213,163.073 140.599,162.672 141.309 M161.302 143.300 C 160.284 144.584,158.826 147.200,159.127 147.200 C 159.313 147.200,159.714 146.705,160.018 146.100 C 160.322 145.495,160.905 144.505,161.313 143.900 C 162.055 142.799,162.047 142.359,161.302 143.300 M210.797 148.318 L 210.994 152.200 211.114 148.636 C 211.179 146.677,211.091 144.930,210.916 144.755 C 210.742 144.580,210.689 146.183,210.797 148.318 M155.073 156.153 C 154.923 156.545,154.811 157.166,154.825 157.533 C 154.842 157.975,154.981 157.874,155.237 157.234 C 155.449 156.703,155.561 156.082,155.485 155.854 C 155.409 155.627,155.224 155.761,155.073 156.153 M153.450 164.450 C 153.131 166.046,153.197 173.907,153.540 175.124 C 153.683 175.632,153.800 173.157,153.800 169.624 C 153.800 162.570,153.807 162.667,153.450 164.450 M154.834 181.800 C 154.822 182.240,154.987 182.870,155.200 183.200 C 155.714 183.995,155.714 182.996,155.200 181.800 L 154.856 181.000 154.834 181.800 M159.445 193.012 C 159.810 193.569,160.186 193.947,160.282 193.851 C 160.519 193.614,159.484 192.000,159.095 192.000 C 158.922 192.000,159.080 192.456,159.445 193.012 M163.424 198.600 C 166.026 202.000,172.800 208.311,172.800 207.334 C 172.800 207.135,172.305 206.674,171.700 206.310 C 170.392 205.522,166.571 201.869,163.847 198.800 L 161.893 196.600 163.424 198.600 M176.394 209.982 C 176.941 210.402,177.468 210.666,177.565 210.569 C 177.791 210.342,176.329 209.227,175.800 209.222 C 175.580 209.220,175.847 209.561,176.394 209.982 M186.400 214.400 C 186.730 214.613,187.450 214.773,188.000 214.754 L 189.000 214.720 188.000 214.400 C 186.458 213.906,185.636 213.906,186.400 214.400 M194.200 215.978 C 195.397 216.305,200.683 216.536,200.367 216.248 C 200.275 216.165,198.580 215.996,196.600 215.873 C 194.438 215.739,193.479 215.781,194.200 215.978 " stroke="none" fill="#fb6393" fill-rule="evenodd"></path><path id="path1" d="M194.400 104.402 C 193.410 104.588,191.753 104.754,190.719 104.770 C 189.684 104.787,188.424 104.960,187.919 105.155 C 187.413 105.350,186.010 105.718,184.800 105.972 C 182.164 106.525,179.694 107.176,178.600 107.605 C 178.160 107.778,177.170 108.136,176.400 108.400 C 143.369 119.742,124.719 156.331,133.787 192.000 C 134.953 196.586,136.811 202.431,137.277 202.980 C 137.455 203.189,137.600 203.656,137.600 204.019 C 137.600 204.381,137.850 205.200,138.156 205.839 C 138.462 206.477,139.002 207.675,139.356 208.500 C 139.710 209.325,140.290 210.675,140.644 211.500 C 140.998 212.325,141.538 213.523,141.844 214.161 C 142.150 214.800,142.400 215.550,142.400 215.828 C 142.400 216.106,142.535 216.393,142.700 216.467 C 142.865 216.540,144.130 218.815,145.511 221.521 C 151.002 232.282,168.593 258.536,172.365 261.600 C 172.500 261.710,173.419 262.788,174.405 263.996 C 176.609 266.692,177.683 267.944,180.000 270.514 C 180.990 271.612,182.070 272.821,182.400 273.199 C 188.414 280.097,199.302 291.200,200.051 291.200 C 200.589 291.200,215.291 276.492,219.000 272.242 C 220.320 270.730,221.583 269.292,221.806 269.047 C 222.029 268.801,223.199 267.430,224.406 266.001 C 225.613 264.571,226.879 263.131,227.219 262.801 C 227.559 262.470,228.275 261.570,228.808 260.800 C 229.342 260.030,230.109 259.040,230.514 258.600 C 230.919 258.160,232.810 255.730,234.718 253.200 C 236.625 250.670,238.280 248.510,238.396 248.400 C 238.512 248.290,239.056 247.526,239.604 246.703 C 240.152 245.879,240.735 245.204,240.900 245.203 C 241.065 245.201,241.200 245.012,241.200 244.782 C 241.200 244.273,245.206 238.254,245.670 238.067 C 245.851 237.993,246.000 237.792,246.000 237.620 C 246.000 237.447,247.287 235.167,248.861 232.553 C 250.435 229.939,252.882 225.550,254.300 222.800 C 255.717 220.050,257.040 217.629,257.238 217.420 C 257.437 217.211,257.600 216.716,257.600 216.320 C 257.600 215.924,257.780 215.600,258.000 215.600 C 258.220 215.600,258.400 215.347,258.400 215.038 C 258.400 214.729,258.786 213.694,259.257 212.738 C 259.728 211.782,260.242 210.640,260.398 210.200 C 260.555 209.760,261.069 208.540,261.541 207.489 C 262.014 206.438,262.400 205.259,262.400 204.869 C 262.400 204.479,262.553 203.989,262.740 203.780 C 262.927 203.571,263.484 202.050,263.979 200.400 C 264.473 198.750,265.022 196.950,265.197 196.400 C 269.947 181.526,269.288 160.937,263.623 147.245 C 262.950 145.620,262.400 144.060,262.400 143.778 C 262.400 143.497,262.265 143.207,262.100 143.133 C 261.935 143.060,261.357 142.100,260.816 141.000 C 260.274 139.900,259.329 138.248,258.716 137.328 C 258.102 136.408,257.600 135.555,257.600 135.433 C 257.600 135.310,257.341 134.892,257.024 134.505 C 256.707 134.117,255.383 132.360,254.081 130.600 C 249.563 124.494,243.384 118.961,235.657 114.102 C 233.818 112.946,232.198 112.000,232.057 112.001 C 231.607 112.003,228.205 110.212,228.067 109.900 C 227.993 109.735,227.509 109.600,226.990 109.600 C 226.472 109.600,225.951 109.445,225.834 109.255 C 225.717 109.065,224.801 108.680,223.800 108.400 C 222.799 108.120,221.883 107.735,221.766 107.545 C 221.649 107.355,221.111 107.200,220.571 107.200 C 220.031 107.200,219.277 107.036,218.895 106.836 C 215.440 105.027,199.500 103.443,194.400 104.402 M206.668 122.918 C 208.465 123.184,210.070 123.537,210.234 123.701 C 210.399 123.866,211.136 124.000,211.872 124.000 C 212.608 124.000,213.523 124.159,213.905 124.353 C 214.581 124.697,215.866 125.237,217.700 125.949 C 219.061 126.478,222.573 128.161,222.800 128.395 C 222.910 128.508,223.810 129.037,224.800 129.570 C 225.790 130.104,226.690 130.644,226.800 130.771 C 226.910 130.898,227.720 131.497,228.600 132.101 C 231.274 133.939,235.584 138.299,237.592 141.200 C 238.125 141.970,238.661 142.690,238.782 142.800 C 239.947 143.857,244.800 153.672,244.800 154.972 C 244.800 155.291,244.980 155.664,245.200 155.800 C 245.420 155.936,245.600 156.669,245.600 157.429 C 245.600 158.189,245.761 159.123,245.958 159.505 C 247.516 162.531,247.516 176.669,245.958 179.695 C 245.761 180.077,245.600 180.934,245.600 181.600 C 245.600 182.266,245.441 183.123,245.247 183.505 C 244.903 184.181,244.363 185.466,243.651 187.300 C 243.122 188.661,241.439 192.173,241.205 192.400 C 241.092 192.510,240.563 193.410,240.030 194.400 C 239.496 195.390,238.948 196.290,238.811 196.400 C 238.674 196.510,238.137 197.230,237.617 198.000 C 236.421 199.773,230.250 205.934,228.400 207.202 C 227.630 207.730,226.910 208.260,226.800 208.381 C 226.690 208.501,226.195 208.825,225.700 209.100 C 225.205 209.375,224.395 209.825,223.900 210.100 C 223.405 210.375,222.910 210.692,222.800 210.805 C 222.589 211.022,219.951 212.302,217.600 213.328 C 215.181 214.383,212.635 215.188,211.695 215.194 C 211.197 215.197,210.477 215.367,210.095 215.571 C 206.426 217.532,193.159 216.947,185.349 214.479 C 182.988 213.733,177.468 211.152,177.267 210.700 C 177.193 210.535,176.960 210.400,176.749 210.400 C 173.835 210.400,159.200 195.793,159.200 192.885 C 159.200 192.655,159.065 192.407,158.900 192.333 C 158.335 192.082,155.621 185.996,154.872 183.300 C 151.937 172.734,152.044 165.086,155.272 154.800 C 156.410 151.172,160.020 143.886,161.218 142.800 C 161.339 142.690,161.875 141.970,162.408 141.200 C 164.415 138.301,168.723 133.941,171.400 132.100 C 172.280 131.495,173.233 130.779,173.519 130.510 C 173.804 130.240,174.704 129.710,175.519 129.331 C 176.333 128.952,177.090 128.539,177.200 128.413 C 177.558 128.003,182.558 125.670,184.200 125.147 C 185.080 124.866,185.971 124.493,186.180 124.318 C 186.389 124.143,187.143 124.000,187.856 124.000 C 188.569 124.000,189.264 123.820,189.400 123.600 C 189.536 123.380,190.402 123.182,191.324 123.160 C 192.246 123.138,193.450 122.976,194.000 122.800 C 195.537 122.308,203.018 122.377,206.668 122.918 " stroke="none" fill="#e3f3fb" fill-rule="evenodd"></path><path id="path2" d="M66.600 36.000 C 66.464 36.220,65.204 36.400,63.800 36.400 C 62.396 36.400,61.136 36.580,61.000 36.800 C 60.864 37.020,60.144 37.200,59.400 37.200 C 58.656 37.200,57.936 37.380,57.800 37.600 C 57.664 37.820,57.248 37.999,56.876 37.997 C 55.946 37.992,49.549 41.215,48.753 42.089 C 48.397 42.480,47.900 42.800,47.647 42.800 C 45.445 42.800,36.385 55.425,36.397 58.476 C 36.399 58.848,36.220 59.264,36.000 59.400 C 35.478 59.722,35.478 62.800,36.000 62.800 C 36.220 62.800,36.400 62.080,36.400 61.200 C 36.400 60.320,36.580 59.600,36.800 59.600 C 37.020 59.600,37.200 59.150,37.200 58.600 C 37.200 58.050,37.380 57.600,37.600 57.600 C 37.820 57.600,38.000 57.240,38.000 56.800 C 38.000 56.360,38.180 56.000,38.400 56.000 C 38.620 56.000,38.800 55.657,38.800 55.238 C 38.800 54.331,40.408 51.200,40.874 51.200 C 41.053 51.200,41.200 50.835,41.200 50.389 C 41.200 49.477,46.748 43.733,48.500 42.831 C 49.105 42.520,49.600 42.115,49.600 41.932 C 49.600 41.750,49.825 41.599,50.100 41.598 C 50.375 41.597,51.486 41.147,52.568 40.598 C 53.650 40.049,54.865 39.600,55.268 39.600 C 55.671 39.600,56.000 39.420,56.000 39.200 C 56.000 38.980,56.540 38.800,57.200 38.800 C 57.860 38.800,58.400 38.620,58.400 38.400 C 58.400 38.180,59.030 38.000,59.800 38.000 C 60.570 38.000,61.200 37.820,61.200 37.600 C 61.200 37.371,62.400 37.200,64.000 37.200 C 65.600 37.200,66.800 37.029,66.800 36.800 C 66.800 36.534,111.600 36.400,200.400 36.400 C 289.200 36.400,334.000 36.534,334.000 36.800 C 334.000 37.029,335.200 37.200,336.800 37.200 C 338.400 37.200,339.600 37.371,339.600 37.600 C 339.600 37.820,340.320 38.000,341.200 38.000 C 342.080 38.000,342.800 38.180,342.800 38.400 C 342.800 38.620,343.250 38.800,343.800 38.800 C 344.350 38.800,344.800 38.980,344.800 39.200 C 344.800 39.420,345.340 39.600,346.000 39.600 C 346.660 39.600,347.200 39.780,347.200 40.000 C 347.200 40.220,347.560 40.400,348.000 40.400 C 348.440 40.400,348.800 40.580,348.800 40.800 C 348.800 41.020,349.087 41.200,349.438 41.200 C 350.303 41.200,352.301 42.362,353.738 43.700 C 354.387 44.305,355.162 44.800,355.459 44.800 C 355.757 44.800,356.004 45.025,356.009 45.300 C 356.014 45.575,357.004 46.852,358.209 48.137 C 359.414 49.422,360.400 50.817,360.400 51.237 C 360.400 51.657,360.580 52.000,360.800 52.000 C 361.020 52.000,361.200 52.360,361.200 52.800 C 361.200 53.240,361.380 53.600,361.600 53.600 C 361.820 53.600,362.000 53.960,362.000 54.400 C 362.000 54.840,362.180 55.200,362.400 55.200 C 362.620 55.200,362.800 55.549,362.800 55.976 C 362.800 56.403,362.980 56.864,363.200 57.000 C 363.420 57.136,363.600 57.597,363.600 58.024 C 363.600 58.451,363.780 58.800,364.000 58.800 C 364.220 58.800,364.400 59.520,364.400 60.400 C 364.400 61.280,364.580 62.000,364.800 62.000 C 365.020 62.000,365.200 62.900,365.200 64.000 C 365.200 65.100,365.380 66.000,365.600 66.000 C 365.866 66.000,366.000 111.600,366.000 202.000 C 366.000 292.400,365.866 338.000,365.600 338.000 C 365.380 338.000,365.200 338.900,365.200 340.000 C 365.200 341.100,365.020 342.000,364.800 342.000 C 364.580 342.000,364.400 342.630,364.400 343.400 C 364.400 344.170,364.220 344.800,364.000 344.800 C 363.780 344.800,363.600 345.340,363.600 346.000 C 363.600 346.660,363.420 347.200,363.200 347.200 C 362.980 347.200,362.800 347.543,362.800 347.962 C 362.800 348.869,361.192 352.000,360.726 352.000 C 360.547 352.000,360.400 352.332,360.400 352.738 C 360.400 353.144,359.950 353.999,359.400 354.638 C 358.851 355.277,358.401 355.940,358.400 356.111 C 358.399 356.870,354.125 360.580,352.700 361.058 C 352.315 361.188,352.000 361.452,352.000 361.647 C 352.000 361.841,351.640 362.000,351.200 362.000 C 350.760 362.000,350.400 362.147,350.400 362.326 C 350.400 362.792,347.269 364.400,346.362 364.400 C 345.943 364.400,345.600 364.580,345.600 364.800 C 345.600 365.020,345.150 365.200,344.600 365.200 C 344.050 365.200,343.600 365.380,343.600 365.600 C 343.600 365.820,342.880 366.000,342.000 366.000 C 341.120 366.000,340.400 366.180,340.400 366.400 C 340.400 366.620,339.500 366.800,338.400 366.800 C 337.300 366.800,336.400 366.980,336.400 367.200 C 336.400 367.466,290.933 367.600,200.800 367.600 C 110.667 367.600,65.200 367.466,65.200 367.200 C 65.200 366.978,64.133 366.800,62.800 366.800 C 61.467 366.800,60.400 366.622,60.400 366.400 C 60.400 366.180,59.770 366.000,59.000 366.000 C 58.230 366.000,57.600 365.820,57.600 365.600 C 57.600 365.380,57.060 365.200,56.400 365.200 C 55.740 365.200,55.200 365.020,55.200 364.800 C 55.200 364.580,54.840 364.400,54.400 364.400 C 53.960 364.400,53.600 364.220,53.600 364.000 C 53.600 363.780,53.240 363.600,52.800 363.600 C 52.360 363.600,52.000 363.420,52.000 363.200 C 52.000 362.980,51.640 362.800,51.200 362.800 C 50.760 362.800,50.400 362.620,50.400 362.400 C 50.400 362.180,50.175 361.998,49.900 361.995 C 48.633 361.981,41.951 355.667,40.917 353.506 C 40.522 352.683,40.065 352.007,39.900 352.005 C 39.735 352.002,39.600 351.640,39.600 351.200 C 39.600 350.760,39.420 350.400,39.200 350.400 C 38.980 350.400,38.800 350.051,38.800 349.624 C 38.800 349.197,38.620 348.736,38.400 348.600 C 38.180 348.464,38.000 347.913,38.000 347.376 C 38.000 346.839,37.820 346.400,37.600 346.400 C 37.380 346.400,37.200 345.860,37.200 345.200 C 37.200 344.540,37.020 344.000,36.800 344.000 C 36.580 344.000,36.400 343.370,36.400 342.600 C 36.400 341.830,36.220 341.200,36.000 341.200 C 35.771 341.200,35.600 340.000,35.600 338.400 C 35.600 336.800,35.429 335.600,35.200 335.600 C 34.934 335.600,34.800 290.800,34.800 202.000 C 34.800 113.200,34.934 68.400,35.200 68.400 C 35.422 68.400,35.600 67.333,35.600 66.000 C 35.600 64.667,35.422 63.600,35.200 63.600 C 34.980 63.600,34.800 64.579,34.800 65.776 C 34.800 66.973,34.620 68.064,34.400 68.200 C 33.845 68.543,33.845 335.457,34.400 335.800 C 34.620 335.936,34.800 337.196,34.800 338.600 C 34.800 340.004,34.980 341.264,35.200 341.400 C 35.420 341.536,35.600 342.256,35.600 343.000 C 35.600 343.744,35.780 344.464,36.000 344.600 C 36.220 344.736,36.400 345.191,36.400 345.611 C 36.400 346.032,36.760 347.017,37.200 347.800 C 37.640 348.583,38.000 349.579,38.000 350.012 C 38.000 350.445,38.180 350.800,38.400 350.800 C 38.620 350.800,38.800 351.120,38.800 351.512 C 38.800 351.903,39.160 352.483,39.600 352.800 C 40.040 353.117,40.400 353.609,40.400 353.893 C 40.400 354.621,47.859 362.000,48.595 362.000 C 48.928 362.000,49.200 362.191,49.200 362.424 C 49.200 362.657,49.380 362.736,49.600 362.600 C 49.820 362.464,50.000 362.633,50.000 362.976 C 50.000 363.333,50.342 363.600,50.800 363.600 C 51.240 363.600,51.600 363.736,51.600 363.902 C 51.600 364.763,57.820 366.793,61.314 367.072 C 63.026 367.209,64.522 367.474,64.637 367.660 C 64.912 368.106,336.689 368.104,336.964 367.659 C 337.080 367.471,338.395 367.203,339.887 367.063 C 342.334 366.834,343.751 366.425,347.900 364.749 C 348.615 364.461,349.200 364.084,349.200 363.912 C 349.200 363.741,349.560 363.600,350.000 363.600 C 350.440 363.600,350.800 363.420,350.800 363.200 C 350.800 362.980,351.088 362.800,351.440 362.800 C 351.791 362.800,352.583 362.260,353.200 361.600 C 353.817 360.940,354.523 360.400,354.771 360.400 C 355.019 360.400,356.026 359.595,357.011 358.611 C 357.995 357.626,358.800 356.619,358.800 356.371 C 358.800 356.123,359.340 355.417,360.000 354.800 C 360.660 354.183,361.200 353.391,361.200 353.040 C 361.200 352.688,361.380 352.400,361.600 352.400 C 361.820 352.400,362.000 352.040,362.000 351.600 C 362.000 351.160,362.180 350.800,362.400 350.800 C 362.620 350.800,362.800 350.440,362.800 350.000 C 362.800 349.560,362.935 349.199,363.100 349.197 C 363.501 349.193,364.400 347.219,364.400 346.344 C 364.400 345.961,364.580 345.536,364.800 345.400 C 365.020 345.264,365.200 344.544,365.200 343.800 C 365.200 343.056,365.380 342.336,365.600 342.200 C 365.820 342.064,366.000 341.164,366.000 340.200 C 366.000 339.236,366.180 338.336,366.400 338.200 C 366.955 337.857,366.955 66.143,366.400 65.800 C 366.180 65.664,366.000 64.764,366.000 63.800 C 366.000 62.836,365.820 61.936,365.600 61.800 C 365.380 61.664,365.200 61.029,365.200 60.389 C 365.200 59.748,364.840 58.583,364.400 57.800 C 363.960 57.017,363.600 56.136,363.600 55.844 C 363.600 54.526,360.804 50.006,358.700 47.922 C 357.435 46.669,356.400 45.364,356.400 45.022 C 356.400 44.680,356.112 44.400,355.760 44.400 C 355.409 44.400,354.617 43.860,354.000 43.200 C 353.383 42.540,352.657 42.000,352.386 42.000 C 352.116 42.000,351.603 41.685,351.247 41.300 C 350.397 40.381,347.324 38.800,346.386 38.800 C 345.980 38.800,345.536 38.620,345.400 38.400 C 345.264 38.180,344.724 38.000,344.200 38.000 C 343.676 38.000,343.136 37.820,343.000 37.600 C 342.864 37.380,342.144 37.200,341.400 37.200 C 340.656 37.200,339.936 37.020,339.800 36.800 C 339.664 36.580,338.404 36.400,337.000 36.400 C 335.596 36.400,334.336 36.220,334.200 36.000 C 334.036 35.735,289.004 35.600,200.400 35.600 C 111.796 35.600,66.764 35.735,66.600 36.000 M198.363 122.970 C 198.234 123.100,196.434 123.367,194.364 123.565 C 190.816 123.903,185.560 125.107,184.946 125.721 C 184.792 125.874,184.355 126.000,183.974 126.000 C 183.593 126.000,182.255 126.540,181.000 127.200 C 179.745 127.860,178.482 128.400,178.193 128.400 C 177.903 128.400,177.607 128.542,177.533 128.715 C 177.460 128.888,176.546 129.525,175.502 130.131 C 172.355 131.956,163.600 139.680,163.600 140.631 C 163.600 140.720,162.975 141.612,162.211 142.613 C 161.447 143.613,160.527 145.055,160.166 145.816 C 159.804 146.577,159.349 147.200,159.154 147.200 C 158.959 147.200,158.800 147.452,158.800 147.759 C 158.800 148.067,158.260 149.345,157.600 150.600 C 156.940 151.855,156.400 153.193,156.400 153.574 C 156.400 153.955,156.274 154.392,156.121 154.546 C 154.157 156.510,152.868 174.888,154.392 179.200 C 154.586 179.750,155.136 181.550,155.612 183.200 C 156.089 184.850,157.001 187.260,157.640 188.556 C 158.278 189.852,158.800 191.157,158.800 191.456 C 158.800 191.755,158.952 192.000,159.137 192.000 C 159.323 192.000,159.899 192.825,160.418 193.834 C 162.063 197.034,167.446 203.075,171.200 205.934 C 171.969 206.520,172.922 207.291,173.317 207.646 C 173.712 208.002,174.837 208.705,175.818 209.209 C 176.798 209.713,177.600 210.277,177.600 210.463 C 177.600 210.648,177.865 210.800,178.188 210.800 C 178.511 210.800,179.393 211.147,180.147 211.570 C 181.665 212.423,183.711 213.162,188.800 214.697 C 193.034 215.973,207.213 216.243,209.685 215.094 C 210.408 214.758,211.764 214.358,212.698 214.207 C 213.632 214.055,214.497 213.766,214.622 213.565 C 214.746 213.364,215.199 213.200,215.629 213.200 C 216.059 213.200,216.723 213.043,217.105 212.850 C 219.870 211.457,221.329 210.800,221.655 210.800 C 221.863 210.800,222.420 210.440,222.892 210.000 C 223.364 209.560,223.987 209.200,224.275 209.200 C 224.564 209.200,224.800 209.020,224.800 208.800 C 224.800 208.580,225.036 208.400,225.325 208.400 C 225.613 208.400,226.198 208.085,226.625 207.700 C 227.052 207.315,228.031 206.528,228.800 205.951 C 232.403 203.250,238.328 196.444,239.989 193.100 C 240.289 192.495,240.685 192.000,240.868 192.000 C 241.050 192.000,241.200 191.747,241.200 191.438 C 241.200 190.953,241.752 189.680,243.250 186.705 C 243.443 186.323,243.600 185.659,243.600 185.229 C 243.600 184.799,243.749 184.355,243.932 184.242 C 244.114 184.130,244.504 182.994,244.799 181.719 C 245.093 180.443,245.462 179.220,245.618 179.000 C 245.865 178.651,246.463 171.618,246.434 169.400 C 246.396 166.541,245.859 160.533,245.612 160.200 C 245.449 159.980,245.072 158.675,244.775 157.300 C 244.478 155.925,244.092 154.800,243.917 154.800 C 243.743 154.800,243.600 154.260,243.600 153.600 C 243.600 152.940,243.420 152.400,243.200 152.400 C 242.980 152.400,242.800 152.135,242.800 151.812 C 242.800 151.489,242.440 150.583,242.000 149.800 C 241.560 149.017,241.200 148.111,241.200 147.788 C 241.200 147.465,241.041 147.200,240.846 147.200 C 240.651 147.200,240.201 146.589,239.846 145.841 C 237.651 141.216,229.832 133.223,224.446 130.100 C 223.431 129.511,222.540 128.888,222.467 128.715 C 222.393 128.542,222.095 128.400,221.804 128.400 C 221.349 128.400,220.050 127.833,217.105 126.350 C 216.723 126.157,216.048 126.000,215.605 126.000 C 215.162 126.000,214.800 125.857,214.800 125.683 C 214.800 125.508,213.675 125.122,212.300 124.825 C 210.925 124.528,209.620 124.151,209.400 123.988 C 209.180 123.824,207.290 123.584,205.200 123.454 C 203.110 123.324,200.769 123.110,199.999 122.977 C 199.228 122.844,198.492 122.841,198.363 122.970 M203.950 133.019 C 207.362 136.616,210.386 141.427,210.395 143.276 C 210.398 143.868,210.580 144.464,210.800 144.600 C 211.020 144.736,211.200 146.517,211.200 148.562 L 211.200 152.278 213.167 151.304 C 215.960 149.922,217.724 149.504,221.597 149.308 C 224.938 149.139,227.016 149.519,231.000 151.028 C 231.440 151.195,232.610 151.633,233.600 152.001 C 235.570 152.735,235.905 153.971,234.781 156.362 C 234.512 156.933,234.160 157.760,233.997 158.200 C 231.626 164.612,226.808 169.725,221.400 171.568 C 219.078 172.359,219.091 172.604,221.596 175.164 C 226.209 179.878,227.990 184.924,227.997 193.300 L 228.000 196.800 223.393 196.800 C 218.491 196.800,213.690 195.847,211.634 194.466 C 211.065 194.084,210.107 193.523,209.505 193.220 C 206.268 191.593,201.457 184.753,200.828 180.885 C 200.482 178.757,200.023 179.039,199.018 182.000 C 195.673 191.848,189.045 196.374,177.500 196.691 L 172.000 196.842 172.003 192.921 C 172.009 184.831,173.960 179.245,178.169 175.264 C 180.886 172.695,180.916 172.344,178.500 171.475 C 175.164 170.275,170.834 166.935,169.343 164.411 C 168.949 163.745,168.486 163.200,168.314 163.200 C 168.141 163.200,168.000 163.028,168.000 162.818 C 168.000 162.608,167.479 161.303,166.842 159.918 C 164.308 154.410,163.955 152.917,165.100 152.551 C 165.485 152.428,166.160 152.183,166.600 152.007 C 170.477 150.452,171.835 150.000,172.630 150.000 C 173.137 150.000,173.664 149.820,173.800 149.600 C 174.649 148.226,184.018 149.598,187.473 151.603 L 188.746 152.341 188.911 148.671 C 189.211 141.958,190.933 138.310,196.545 132.500 C 200.039 128.882,200.022 128.881,203.950 133.019 M257.209 133.401 C 257.214 133.620,257.570 134.250,258.000 134.800 C 258.430 135.350,258.786 136.025,258.791 136.300 C 258.796 136.575,258.935 136.801,259.100 136.803 C 259.265 136.805,259.606 137.210,259.857 137.703 C 260.108 138.196,261.229 140.400,262.348 142.600 C 263.467 144.800,264.387 146.885,264.392 147.233 C 264.396 147.582,264.519 147.986,264.665 148.132 C 268.242 151.709,270.231 176.881,267.848 188.400 C 267.506 190.050,267.115 191.940,266.978 192.600 C 266.250 196.106,262.880 206.453,262.265 207.068 C 262.119 207.214,262.000 207.638,262.000 208.010 C 262.000 208.383,261.478 209.748,260.839 211.044 C 259.166 214.439,258.000 217.130,258.000 217.596 C 258.000 217.818,257.820 218.000,257.600 218.000 C 257.380 218.000,257.200 218.345,257.200 218.767 C 257.200 219.188,257.065 219.593,256.900 219.667 C 256.735 219.740,255.743 221.510,254.696 223.600 C 252.388 228.206,246.506 238.148,245.979 238.333 C 245.771 238.407,245.600 238.640,245.600 238.851 C 245.600 239.337,241.576 245.354,241.130 245.533 C 240.949 245.607,240.800 245.826,240.800 246.020 C 240.800 246.293,236.123 252.769,234.313 255.000 C 234.135 255.220,232.308 257.503,230.254 260.073 C 222.771 269.435,216.514 276.313,206.500 286.186 C 203.365 289.276,200.800 291.985,200.800 292.205 C 200.800 292.425,206.369 298.171,213.175 304.975 L 225.550 317.345 227.075 316.905 C 227.914 316.664,229.410 316.254,230.400 315.996 C 234.783 314.850,244.803 311.392,247.952 309.937 C 257.601 305.481,260.656 303.776,267.867 298.825 C 281.819 289.245,300.421 269.144,303.960 259.821 C 304.048 259.590,304.229 259.310,304.362 259.200 C 304.813 258.827,309.934 248.218,311.216 245.000 C 314.870 235.832,318.265 222.748,319.001 215.000 C 319.126 213.680,319.407 211.430,319.625 210.000 C 319.844 208.570,320.120 204.880,320.239 201.800 L 320.456 196.200 288.828 164.601 C 271.433 147.221,257.204 133.181,257.209 133.401 " stroke="none" fill="#f31454" fill-rule="evenodd"></path><path id="path3" d="M173.800 149.600 C 173.664 149.820,173.137 150.000,172.630 150.000 C 171.835 150.000,170.477 150.452,166.600 152.007 C 166.160 152.183,165.485 152.428,165.100 152.551 C 163.955 152.917,164.308 154.410,166.842 159.918 C 167.479 161.303,168.000 162.608,168.000 162.818 C 168.000 163.028,168.141 163.200,168.314 163.200 C 168.486 163.200,168.949 163.745,169.343 164.411 C 170.834 166.935,175.164 170.275,178.500 171.475 C 180.916 172.344,180.886 172.695,178.169 175.264 C 173.960 179.245,172.009 184.831,172.003 192.921 L 172.000 196.842 177.500 196.691 C 189.045 196.374,195.673 191.848,199.018 182.000 C 200.023 179.039,200.482 178.757,200.828 180.885 C 201.457 184.753,206.268 191.593,209.505 193.220 C 210.107 193.523,211.065 194.084,211.634 194.466 C 213.690 195.847,218.491 196.800,223.393 196.800 L 228.000 196.800 227.997 193.300 C 227.990 184.924,226.209 179.878,221.596 175.164 C 219.091 172.604,219.078 172.359,221.400 171.568 C 226.893 169.696,231.280 165.011,234.104 158.000 C 234.326 157.450,234.678 156.623,234.888 156.162 C 235.897 153.943,235.517 152.715,233.600 152.001 C 232.610 151.633,231.440 151.195,231.000 151.028 C 227.016 149.519,224.938 149.139,221.597 149.308 C 217.813 149.500,216.330 149.842,213.400 151.198 C 212.300 151.708,211.257 152.094,211.082 152.056 C 209.263 151.665,203.259 160.039,201.241 165.779 C 200.038 169.202,200.056 169.204,196.286 165.200 C 192.839 161.538,190.680 157.981,189.578 154.146 C 189.033 152.250,187.794 151.394,183.634 150.037 C 180.874 149.137,174.268 148.843,173.800 149.600 " stroke="none" fill="#fbbd05" fill-rule="evenodd"></path><path id="path4" d="M66.800 36.800 C 66.800 37.029,65.600 37.200,64.000 37.200 C 62.400 37.200,61.200 37.371,61.200 37.600 C 61.200 37.820,60.570 38.000,59.800 38.000 C 59.030 38.000,58.400 38.180,58.400 38.400 C 58.400 38.620,57.860 38.800,57.200 38.800 C 56.540 38.800,56.000 38.980,56.000 39.200 C 56.000 39.420,55.671 39.600,55.268 39.600 C 54.865 39.600,53.650 40.049,52.568 40.598 C 51.486 41.147,50.375 41.597,50.100 41.598 C 49.825 41.599,49.600 41.750,49.600 41.932 C 49.600 42.115,49.105 42.520,48.500 42.831 C 46.748 43.733,41.200 49.477,41.200 50.389 C 41.200 50.835,41.053 51.200,40.874 51.200 C 40.408 51.200,38.800 54.331,38.800 55.238 C 38.800 55.657,38.620 56.000,38.400 56.000 C 38.180 56.000,38.000 56.360,38.000 56.800 C 38.000 57.240,37.820 57.600,37.600 57.600 C 37.380 57.600,37.200 58.050,37.200 58.600 C 37.200 59.150,37.020 59.600,36.800 59.600 C 36.580 59.600,36.400 60.309,36.400 61.176 C 36.400 62.043,36.220 62.864,36.000 63.000 C 35.780 63.136,35.600 64.407,35.600 65.824 C 35.600 67.275,35.425 68.400,35.200 68.400 C 34.934 68.400,34.800 113.200,34.800 202.000 C 34.800 290.800,34.934 335.600,35.200 335.600 C 35.429 335.600,35.600 336.800,35.600 338.400 C 35.600 340.000,35.771 341.200,36.000 341.200 C 36.220 341.200,36.400 341.830,36.400 342.600 C 36.400 343.370,36.580 344.000,36.800 344.000 C 37.020 344.000,37.200 344.540,37.200 345.200 C 37.200 345.860,37.380 346.400,37.600 346.400 C 37.820 346.400,38.000 346.839,38.000 347.376 C 38.000 347.913,38.180 348.464,38.400 348.600 C 38.620 348.736,38.800 349.197,38.800 349.624 C 38.800 350.051,38.980 350.400,39.200 350.400 C 39.420 350.400,39.600 350.760,39.600 351.200 C 39.600 351.640,39.735 352.002,39.900 352.005 C 40.065 352.007,40.522 352.683,40.917 353.506 C 41.951 355.667,48.633 361.981,49.900 361.995 C 50.175 361.998,50.400 362.180,50.400 362.400 C 50.400 362.620,50.760 362.800,51.200 362.800 C 51.640 362.800,52.000 362.980,52.000 363.200 C 52.000 363.420,52.360 363.600,52.800 363.600 C 53.240 363.600,53.600 363.780,53.600 364.000 C 53.600 364.220,53.960 364.400,54.400 364.400 C 54.840 364.400,55.200 364.580,55.200 364.800 C 55.200 365.020,55.740 365.200,56.400 365.200 C 57.060 365.200,57.600 365.380,57.600 365.600 C 57.600 365.820,58.230 366.000,59.000 366.000 C 59.770 366.000,60.400 366.180,60.400 366.400 C 60.400 366.622,61.467 366.800,62.800 366.800 C 64.133 366.800,65.200 366.978,65.200 367.200 C 65.200 367.466,110.667 367.600,200.800 367.600 C 290.933 367.600,336.400 367.466,336.400 367.200 C 336.400 366.980,337.300 366.800,338.400 366.800 C 339.500 366.800,340.400 366.620,340.400 366.400 C 340.400 366.180,341.120 366.000,342.000 366.000 C 342.880 366.000,343.600 365.820,343.600 365.600 C 343.600 365.380,344.050 365.200,344.600 365.200 C 345.150 365.200,345.600 365.020,345.600 364.800 C 345.600 364.580,345.943 364.400,346.362 364.400 C 347.269 364.400,350.400 362.792,350.400 362.326 C 350.400 362.147,350.760 362.000,351.200 362.000 C 351.640 362.000,352.000 361.841,352.000 361.647 C 352.000 361.452,352.315 361.188,352.700 361.058 C 354.125 360.580,358.399 356.870,358.400 356.111 C 358.401 355.940,358.851 355.277,359.400 354.638 C 359.950 353.999,360.400 353.144,360.400 352.738 C 360.400 352.332,360.547 352.000,360.726 352.000 C 361.192 352.000,362.800 348.869,362.800 347.962 C 362.800 347.543,362.980 347.200,363.200 347.200 C 363.420 347.200,363.600 346.660,363.600 346.000 C 363.600 345.340,363.780 344.800,364.000 344.800 C 364.220 344.800,364.400 344.170,364.400 343.400 C 364.400 342.630,364.580 342.000,364.800 342.000 C 365.020 342.000,365.200 341.100,365.200 340.000 C 365.200 338.900,365.380 338.000,365.600 338.000 C 365.866 338.000,366.000 292.400,366.000 202.000 C 366.000 111.600,365.866 66.000,365.600 66.000 C 365.380 66.000,365.200 65.100,365.200 64.000 C 365.200 62.900,365.020 62.000,364.800 62.000 C 364.580 62.000,364.400 61.280,364.400 60.400 C 364.400 59.520,364.220 58.800,364.000 58.800 C 363.780 58.800,363.600 58.451,363.600 58.024 C 363.600 57.597,363.420 57.136,363.200 57.000 C 362.980 56.864,362.800 56.403,362.800 55.976 C 362.800 55.549,362.620 55.200,362.400 55.200 C 362.180 55.200,362.000 54.840,362.000 54.400 C 362.000 53.960,361.820 53.600,361.600 53.600 C 361.380 53.600,361.200 53.240,361.200 52.800 C 361.200 52.360,361.020 52.000,360.800 52.000 C 360.580 52.000,360.400 51.657,360.400 51.237 C 360.400 50.817,359.414 49.422,358.209 48.137 C 357.004 46.852,356.014 45.575,356.009 45.300 C 356.004 45.025,355.757 44.800,355.459 44.800 C 355.162 44.800,354.387 44.305,353.738 43.700 C 352.301 42.362,350.303 41.200,349.438 41.200 C 349.087 41.200,348.800 41.020,348.800 40.800 C 348.800 40.580,348.440 40.400,348.000 40.400 C 347.560 40.400,347.200 40.220,347.200 40.000 C 347.200 39.780,346.660 39.600,346.000 39.600 C 345.340 39.600,344.800 39.420,344.800 39.200 C 344.800 38.980,344.350 38.800,343.800 38.800 C 343.250 38.800,342.800 38.620,342.800 38.400 C 342.800 38.180,342.080 38.000,341.200 38.000 C 340.320 38.000,339.600 37.820,339.600 37.600 C 339.600 37.371,338.400 37.200,336.800 37.200 C 335.200 37.200,334.000 37.029,334.000 36.800 C 334.000 36.534,289.200 36.400,200.400 36.400 C 111.600 36.400,66.800 36.534,66.800 36.800 M337.600 41.781 C 338.590 41.947,339.571 42.244,339.780 42.441 C 339.989 42.638,340.486 42.800,340.885 42.800 C 341.284 42.800,341.923 42.959,342.305 43.153 C 342.687 43.348,343.540 43.748,344.200 44.043 C 346.147 44.912,349.705 47.417,351.042 48.860 C 354.323 52.400,356.068 56.054,357.559 62.506 C 357.876 63.873,358.000 102.609,358.000 199.635 L 358.000 334.858 357.150 338.329 C 355.429 345.357,352.306 350.108,347.200 353.469 C 343.902 355.640,342.224 356.265,336.600 357.423 C 333.033 358.157,66.506 358.306,63.277 357.575 C 58.593 356.516,57.606 356.193,54.564 354.733 C 49.930 352.507,46.464 348.928,44.170 344.000 C 42.787 341.029,42.631 340.505,41.781 336.000 C 41.050 332.122,40.905 67.116,41.632 63.531 C 43.688 53.390,47.945 47.183,55.000 44.041 C 55.660 43.747,56.513 43.348,56.895 43.153 C 57.277 42.959,58.042 42.800,58.595 42.800 C 59.148 42.800,59.600 42.620,59.600 42.400 C 59.600 42.180,60.275 41.997,61.100 41.994 C 61.925 41.991,62.870 41.813,63.200 41.599 C 63.914 41.137,334.818 41.317,337.600 41.781 " stroke="none" fill="#be9ba7" fill-rule="evenodd"></path><path id="path5" d="M197.345 132.300 C 186.590 143.190,186.225 154.512,196.286 165.200 C 200.056 169.204,200.038 169.202,201.241 165.779 C 203.081 160.543,204.389 158.362,207.636 155.116 L 210.800 151.952 210.800 148.704 C 210.800 143.069,208.648 138.295,203.856 133.300 C 200.088 129.372,200.217 129.392,197.345 132.300 " stroke="none" fill="#fceb70" fill-rule="evenodd"></path><path id="path6" d="M63.200 41.599 C 62.870 41.813,61.925 41.991,61.100 41.994 C 60.275 41.997,59.600 42.180,59.600 42.400 C 59.600 42.889,59.214 42.912,62.935 42.200 C 67.533 41.320,331.236 41.289,336.200 42.167 C 345.108 43.744,351.319 48.061,354.539 54.914 C 355.853 57.709,356.229 58.943,357.188 63.600 C 357.826 66.702,357.550 334.596,356.906 337.200 C 355.923 341.173,355.679 341.904,354.471 344.512 C 351.564 350.787,345.139 355.248,336.400 357.057 C 333.946 357.565,64.905 357.410,62.400 356.899 C 50.599 354.492,44.635 348.090,42.186 335.200 C 41.448 331.316,41.302 68.708,42.035 64.624 C 44.124 52.993,48.432 47.053,57.228 43.676 C 58.589 43.153,59.062 42.834,58.495 42.821 C 57.997 42.809,57.277 42.959,56.895 43.153 C 56.513 43.348,55.660 43.747,55.000 44.041 C 50.832 45.898,46.789 49.786,44.851 53.804 C 42.917 57.813,42.592 58.794,41.632 63.531 C 40.905 67.116,41.050 332.122,41.781 336.000 C 42.631 340.505,42.787 341.029,44.170 344.000 C 46.464 348.928,49.930 352.507,54.564 354.733 C 57.606 356.193,58.593 356.516,63.277 357.575 C 66.506 358.306,333.033 358.157,336.600 357.423 C 342.224 356.265,343.902 355.640,347.200 353.469 C 352.306 350.108,355.429 345.357,357.150 338.329 L 358.000 334.858 358.000 199.635 C 358.000 102.609,357.876 63.873,357.559 62.506 C 356.068 56.054,354.323 52.400,351.042 48.860 C 349.705 47.417,346.147 44.912,344.200 44.043 C 343.540 43.748,342.687 43.348,342.305 43.153 C 341.923 42.959,341.284 42.800,340.885 42.800 C 340.486 42.800,339.989 42.638,339.780 42.441 C 339.571 42.244,338.590 41.947,337.600 41.781 C 334.818 41.317,63.914 41.137,63.200 41.599 M203.000 123.210 C 204.590 123.552,208.285 123.733,207.967 123.454 C 207.875 123.374,206.360 123.208,204.600 123.087 C 202.302 122.929,201.851 122.963,203.000 123.210 M212.600 124.800 C 213.040 124.989,213.670 125.144,214.000 125.144 C 214.378 125.144,214.304 125.017,213.800 124.800 C 213.360 124.611,212.730 124.456,212.400 124.456 C 212.022 124.456,212.096 124.583,212.600 124.800 M220.224 127.787 C 220.651 128.110,221.279 128.380,221.620 128.387 C 221.961 128.394,222.492 128.625,222.801 128.900 C 223.278 129.325,223.282 129.296,222.832 128.700 C 222.540 128.315,221.975 128.000,221.575 128.000 C 221.175 128.000,220.736 127.820,220.600 127.600 C 220.464 127.380,220.149 127.200,219.900 127.200 C 219.651 127.200,219.796 127.464,220.224 127.787 M223.800 129.472 C 224.020 129.685,225.190 130.528,226.400 131.346 C 227.990 132.421,228.248 132.524,227.330 131.717 C 226.145 130.674,222.922 128.625,223.800 129.472 M256.223 132.905 C 257.084 134.137,257.853 135.080,257.933 135.001 C 258.129 134.804,255.706 131.313,255.124 130.953 C 254.867 130.794,255.362 131.673,256.223 132.905 M232.200 136.221 C 234.180 138.189,235.880 139.750,235.978 139.689 C 236.235 139.528,231.216 134.493,229.800 133.491 C 229.140 133.024,230.220 134.252,232.200 136.221 M259.433 137.800 C 259.833 138.460,260.574 139.810,261.078 140.800 C 261.583 141.790,261.997 142.392,261.998 142.138 C 262.001 141.508,260.541 138.823,259.531 137.600 L 258.705 136.600 259.433 137.800 M238.254 143.200 C 240.062 145.874,240.785 146.677,239.757 144.870 C 239.341 144.138,238.497 142.968,237.883 142.270 C 237.076 141.352,237.179 141.610,238.254 143.200 M262.993 144.787 C 263.547 145.879,264.000 147.039,264.000 147.363 C 264.000 147.687,264.168 148.057,264.374 148.184 C 264.601 148.324,264.622 147.974,264.428 147.296 C 264.045 145.964,262.468 142.800,262.185 142.800 C 262.076 142.800,262.440 143.694,262.993 144.787 M241.868 149.506 C 241.994 150.005,242.255 150.510,242.448 150.630 C 242.996 150.968,242.862 150.236,242.220 149.376 C 241.660 148.627,241.648 148.632,241.868 149.506 M244.434 155.800 C 244.422 156.240,244.587 156.870,244.800 157.200 C 245.314 157.995,245.314 156.996,244.800 155.800 L 244.456 155.000 244.434 155.800 M267.206 157.433 C 267.209 158.075,267.396 158.870,267.621 159.200 C 267.914 159.630,267.954 159.346,267.762 158.200 C 267.430 156.216,267.198 155.896,267.206 157.433 M268.070 161.400 C 268.057 161.840,268.195 162.920,268.377 163.800 C 268.655 165.145,268.708 165.209,268.707 164.200 C 268.705 162.799,268.108 160.170,268.070 161.400 M246.083 163.800 C 246.070 164.680,246.203 166.210,246.380 167.200 C 246.830 169.731,246.865 167.064,246.418 164.200 C 246.115 162.252,246.106 162.241,246.083 163.800 M246.188 173.388 C 246.031 175.064,245.993 176.526,246.103 176.636 C 246.213 176.746,246.431 175.464,246.588 173.788 C 246.745 172.112,246.784 170.650,246.674 170.540 C 246.564 170.430,246.345 171.712,246.188 173.388 M268.901 173.000 C 268.905 173.880,268.987 174.193,269.083 173.695 C 269.179 173.198,269.175 172.478,269.075 172.095 C 268.975 171.713,268.896 172.120,268.901 173.000 M268.266 183.168 C 268.119 184.578,268.074 185.807,268.166 185.900 C 268.414 186.147,268.915 181.746,268.710 181.130 C 268.613 180.840,268.414 181.757,268.266 183.168 M244.600 182.400 C 244.448 183.091,244.414 183.747,244.524 183.857 C 244.634 183.967,244.848 183.491,245.000 182.800 C 245.152 182.109,245.186 181.453,245.076 181.343 C 244.966 181.233,244.752 181.709,244.600 182.400 M267.449 187.415 C 267.312 187.773,267.220 188.636,267.244 189.333 C 267.282 190.437,267.333 190.371,267.636 188.825 C 267.993 187.005,267.894 186.257,267.449 187.415 M241.467 190.267 C 241.320 190.413,241.200 190.781,241.200 191.084 C 241.200 191.386,241.016 191.851,240.792 192.117 C 240.567 192.383,239.695 193.680,238.853 195.000 C 238.010 196.320,236.004 198.930,234.395 200.800 C 232.785 202.670,231.969 203.750,232.580 203.200 C 235.245 200.801,241.210 192.735,241.698 190.869 C 241.939 189.948,241.896 189.837,241.467 190.267 M266.095 194.240 C 265.829 195.508,265.679 196.612,265.761 196.694 C 265.990 196.923,266.894 192.883,266.726 192.379 C 266.645 192.135,266.361 192.973,266.095 194.240 M264.974 198.300 C 264.842 198.905,264.648 199.670,264.543 200.000 C 264.421 200.384,264.486 200.456,264.723 200.200 C 265.122 199.770,265.700 197.200,265.398 197.200 C 265.297 197.200,265.107 197.695,264.974 198.300 M263.224 203.686 C 262.692 205.289,262.135 206.780,261.986 207.000 C 261.525 207.682,261.255 209.213,261.637 208.977 C 261.837 208.854,262.000 208.491,262.000 208.171 C 262.000 207.851,262.166 207.277,262.368 206.895 C 263.164 205.392,264.471 201.612,264.335 201.204 C 264.256 200.967,263.756 202.084,263.224 203.686 M228.466 206.221 C 227.293 207.199,226.450 208.000,226.593 208.000 C 226.737 208.000,227.848 207.190,229.064 206.200 C 230.279 205.210,231.122 204.409,230.937 204.421 C 230.752 204.432,229.640 205.242,228.466 206.221 M223.900 209.429 C 221.832 210.783,222.003 211.058,224.100 209.751 C 226.117 208.495,226.245 208.393,225.767 208.424 C 225.565 208.436,224.725 208.889,223.900 209.429 M259.704 212.501 C 258.984 214.001,258.780 214.859,259.205 214.597 C 259.422 214.463,259.600 214.039,259.600 213.656 C 259.600 213.273,259.813 212.747,260.073 212.487 C 260.334 212.226,260.454 211.921,260.341 211.807 C 260.227 211.694,259.941 212.006,259.704 212.501 M212.000 214.400 L 211.000 214.720 212.000 214.754 C 212.550 214.773,213.270 214.613,213.600 214.400 C 214.364 213.906,213.542 213.906,212.000 214.400 M257.878 216.605 C 257.512 217.372,257.295 218.000,257.396 218.000 C 257.670 218.000,258.884 215.551,258.701 215.368 C 258.614 215.281,258.244 215.838,257.878 216.605 M201.800 216.000 L 200.200 216.286 201.600 216.308 C 202.370 216.320,203.900 216.190,205.000 216.018 L 207.000 215.707 205.200 215.710 C 204.210 215.712,202.680 215.842,201.800 216.000 M250.602 230.310 C 249.749 231.790,248.184 234.330,247.125 235.955 C 246.066 237.581,245.200 239.007,245.200 239.124 C 245.200 239.241,244.902 239.666,244.538 240.069 C 244.174 240.471,244.053 240.800,244.270 240.800 C 244.487 240.800,244.917 240.305,245.224 239.700 C 245.532 239.095,246.169 238.060,246.640 237.400 C 248.028 235.457,252.452 227.919,252.297 227.763 C 252.218 227.685,251.456 228.831,250.602 230.310 M240.275 246.200 C 239.246 247.630,238.541 248.800,238.708 248.800 C 238.875 248.800,239.456 248.080,240.000 247.200 C 240.544 246.320,241.097 245.600,241.230 245.600 C 241.363 245.600,241.677 245.150,241.927 244.600 C 242.626 243.066,242.307 243.375,240.275 246.200 M235.183 253.300 C 233.327 255.575,232.734 256.522,234.109 255.016 C 235.384 253.620,236.922 251.600,236.712 251.600 C 236.634 251.600,235.945 252.365,235.183 253.300 M229.239 260.800 C 228.311 261.900,227.698 262.792,227.876 262.783 C 228.202 262.766,231.404 258.800,231.092 258.800 C 231.000 258.800,230.166 259.700,229.239 260.800 M222.872 268.300 C 220.455 271.105,217.831 274.020,217.039 274.778 C 216.248 275.537,215.600 276.329,215.600 276.540 C 215.600 276.750,215.974 276.490,216.430 275.961 C 216.887 275.433,218.282 273.919,219.530 272.598 C 220.779 271.277,222.785 269.027,223.990 267.598 C 225.194 266.169,226.274 264.910,226.390 264.800 C 226.938 264.279,227.674 263.200,227.482 263.200 C 227.362 263.200,225.288 265.495,222.872 268.300 M208.309 283.776 C 204.629 287.502,201.667 290.601,201.728 290.661 C 201.788 290.722,204.881 287.724,208.600 284.000 C 212.319 280.276,215.281 277.177,215.181 277.114 C 215.082 277.052,211.989 280.049,208.309 283.776 " stroke="none" fill="#e46898" fill-rule="evenodd"></path><path id="path7" d="M191.400 104.202 C 188.980 104.496,185.560 105.127,183.800 105.606 C 182.040 106.084,180.103 106.570,179.495 106.684 C 178.887 106.799,178.292 107.051,178.171 107.246 C 178.051 107.441,177.601 107.600,177.171 107.600 C 176.741 107.600,176.077 107.759,175.695 107.953 C 175.313 108.148,174.550 108.486,174.000 108.705 C 163.826 112.762,152.787 120.969,146.347 129.265 C 145.606 130.219,144.895 131.090,144.768 131.200 C 144.247 131.649,140.400 137.592,140.400 137.949 C 140.400 138.160,140.247 138.393,140.060 138.467 C 138.970 138.894,134.206 150.773,132.867 156.400 C 131.397 162.583,131.199 164.023,131.261 168.131 L 131.323 172.200 131.604 167.800 C 133.289 141.425,151.832 116.836,176.400 108.400 C 177.170 108.136,178.160 107.778,178.600 107.605 C 179.543 107.235,181.813 106.628,184.600 106.000 C 185.700 105.752,187.230 105.389,188.000 105.194 C 195.310 103.336,214.007 104.334,218.895 106.843 C 219.277 107.040,220.031 107.200,220.571 107.200 C 221.111 107.200,221.649 107.355,221.766 107.545 C 221.883 107.735,222.799 108.120,223.800 108.400 C 224.801 108.680,225.717 109.065,225.834 109.255 C 225.951 109.445,226.472 109.600,226.990 109.600 C 227.509 109.600,227.993 109.735,228.067 109.900 C 228.205 110.212,231.607 112.003,232.057 112.001 C 232.580 111.999,239.109 116.288,242.390 118.789 C 246.771 122.128,251.834 127.341,254.716 131.479 C 255.972 133.283,257.125 134.768,257.278 134.779 C 258.020 134.834,252.146 127.026,249.353 124.245 C 244.595 119.506,235.128 112.400,233.573 112.400 C 233.368 112.400,233.200 112.220,233.200 112.000 C 233.200 111.780,232.970 111.600,232.689 111.600 C 232.408 111.600,231.193 111.094,229.989 110.476 C 228.785 109.858,226.720 108.940,225.400 108.437 C 224.080 107.934,222.640 107.375,222.200 107.194 C 221.760 107.014,220.950 106.751,220.400 106.610 C 219.850 106.468,218.050 105.990,216.400 105.546 C 210.042 103.837,199.214 103.255,191.400 104.202 M194.086 122.740 C 193.584 122.883,196.269 123.001,200.052 123.001 C 203.860 123.002,206.232 122.878,205.366 122.724 C 203.414 122.378,195.320 122.389,194.086 122.740 M189.415 123.576 C 189.276 123.801,189.791 123.859,190.691 123.720 C 192.700 123.410,192.861 123.200,191.090 123.200 C 190.297 123.200,189.543 123.369,189.415 123.576 M208.000 123.355 C 208.000 123.440,208.530 123.587,209.179 123.682 C 209.827 123.777,210.267 123.708,210.155 123.528 C 209.957 123.207,208.000 123.050,208.000 123.355 M186.204 124.394 C 186.052 124.640,186.455 124.694,187.280 124.537 C 189.049 124.200,189.201 124.000,187.690 124.000 C 187.007 124.000,186.338 124.177,186.204 124.394 M210.833 124.143 C 211.250 124.502,213.997 124.719,213.785 124.376 C 213.657 124.169,212.903 124.000,212.110 124.000 C 211.316 124.000,210.742 124.065,210.833 124.143 M181.293 126.180 C 179.700 127.060,179.748 127.306,181.379 126.629 C 182.248 126.269,183.043 125.890,183.146 125.787 C 183.526 125.408,182.171 125.694,181.293 126.180 M173.829 130.209 C 173.405 130.529,173.138 130.871,173.235 130.969 C 173.332 131.066,173.859 130.802,174.406 130.382 C 174.953 129.961,175.220 129.620,175.000 129.622 C 174.780 129.624,174.253 129.888,173.829 130.209 M224.800 129.763 C 224.800 129.843,225.250 130.203,225.800 130.563 C 226.350 130.924,226.800 131.063,226.800 130.873 C 226.800 130.684,226.350 130.323,225.800 130.073 C 225.250 129.822,224.800 129.683,224.800 129.763 M170.536 132.758 C 168.273 134.580,166.779 136.000,164.684 138.321 C 162.227 141.042,163.277 140.251,166.864 136.677 C 168.699 134.849,170.830 132.878,171.600 132.296 C 172.370 131.714,172.881 131.229,172.736 131.219 C 172.591 131.208,171.601 131.901,170.536 132.758 M228.380 132.287 C 229.139 132.899,231.204 134.750,232.968 136.400 C 234.903 138.210,235.552 138.689,234.605 137.607 C 232.733 135.470,228.922 132.078,227.800 131.550 C 227.360 131.343,227.621 131.675,228.380 132.287 M257.615 135.400 C 257.617 135.620,257.986 136.250,258.436 136.800 C 258.979 137.464,259.115 137.531,258.840 137.000 C 258.166 135.695,257.612 134.972,257.615 135.400 M162.136 141.600 C 161.746 142.260,161.315 142.800,161.178 142.800 C 161.041 142.800,160.711 143.295,160.445 143.900 L 159.962 145.000 160.949 143.800 C 162.102 142.399,163.334 140.400,163.045 140.400 C 162.935 140.400,162.526 140.940,162.136 141.600 M236.800 140.738 C 236.800 140.924,237.188 141.419,237.662 141.838 L 238.524 142.600 237.816 141.500 C 237.086 140.366,236.800 140.151,236.800 140.738 M239.037 143.800 C 239.397 144.350,239.757 144.800,239.837 144.800 C 239.917 144.800,239.778 144.350,239.527 143.800 C 239.277 143.250,238.916 142.800,238.727 142.800 C 238.537 142.800,238.676 143.250,239.037 143.800 M262.446 144.200 C 262.469 144.899,263.940 147.827,263.954 147.200 C 263.961 146.870,263.622 145.970,263.200 145.200 C 262.778 144.430,262.439 143.980,262.446 144.200 M159.014 146.235 C 158.641 146.804,158.405 147.338,158.489 147.422 C 158.573 147.507,158.958 147.041,159.344 146.388 C 160.206 144.928,159.948 144.809,159.014 146.235 M157.061 150.105 C 152.782 159.459,151.667 170.649,154.062 180.200 C 154.823 183.235,156.151 187.246,156.458 187.436 C 156.627 187.541,156.394 186.585,155.939 185.313 C 151.792 173.708,152.733 158.895,158.290 148.300 C 158.376 148.135,158.352 148.000,158.235 148.000 C 158.119 148.000,157.590 148.947,157.061 150.105 M265.042 150.800 C 265.195 151.350,265.580 152.700,265.896 153.800 C 266.213 154.900,266.627 156.430,266.817 157.200 L 267.163 158.600 267.031 157.200 C 266.867 155.467,265.728 151.328,265.173 150.451 C 264.855 149.947,264.825 150.026,265.042 150.800 M244.012 153.600 C 244.012 153.930,244.187 154.470,244.400 154.800 C 244.745 155.333,244.788 155.333,244.788 154.800 C 244.788 154.470,244.613 153.930,244.400 153.600 C 244.055 153.067,244.012 153.067,244.012 153.600 M245.080 157.091 C 245.390 159.100,245.600 159.261,245.600 157.490 C 245.600 156.697,245.431 155.943,245.224 155.815 C 244.999 155.676,244.941 156.191,245.080 157.091 M267.450 160.400 C 267.775 162.641,268.002 162.960,267.994 161.167 C 267.991 160.415,267.808 159.530,267.588 159.200 C 267.309 158.781,267.267 159.142,267.450 160.400 M245.980 160.910 C 246.175 162.558,246.183 162.567,246.319 161.249 C 246.396 160.506,246.306 159.746,246.120 159.560 C 245.933 159.373,245.871 159.981,245.980 160.910 M246.600 169.600 C 246.600 173.425,246.714 176.025,246.853 175.377 C 246.992 174.730,247.105 172.130,247.105 169.600 C 247.105 167.070,246.992 164.470,246.853 163.823 C 246.714 163.175,246.600 165.775,246.600 169.600 M268.335 170.273 C 268.475 176.988,268.109 183.197,267.361 186.785 C 267.208 187.518,267.253 187.633,267.522 187.200 C 268.575 185.505,269.267 168.637,268.465 164.200 C 268.306 163.320,268.247 166.053,268.335 170.273 M131.260 177.894 C 131.227 180.366,131.374 183.156,131.587 184.094 C 131.800 185.032,132.361 187.600,132.835 189.800 C 134.246 196.352,136.400 203.051,139.073 209.200 C 139.408 209.970,139.824 210.960,139.998 211.400 C 141.124 214.252,147.577 226.834,149.126 229.200 C 149.486 229.750,150.120 230.830,150.536 231.600 C 150.951 232.370,152.479 234.800,153.930 237.000 C 155.381 239.200,156.811 241.446,157.108 241.991 C 157.404 242.536,157.771 243.076,157.923 243.191 C 158.076 243.306,158.380 243.692,158.600 244.049 C 159.362 245.285,162.541 249.801,162.789 250.000 C 162.926 250.110,163.473 250.830,164.004 251.600 C 166.615 255.386,174.891 265.592,179.574 270.800 C 181.057 272.450,183.223 274.880,184.385 276.200 C 188.326 280.675,199.329 291.600,199.895 291.600 C 200.204 291.600,200.727 291.330,201.057 291.000 C 201.387 290.670,201.475 290.400,201.252 290.400 C 201.029 290.400,200.736 290.580,200.600 290.800 C 200.464 291.020,200.177 291.200,199.962 291.200 C 199.485 291.200,190.118 281.819,186.000 277.216 C 184.350 275.371,182.190 272.968,181.200 271.876 C 180.210 270.783,179.072 269.509,178.672 269.044 C 178.271 268.580,177.551 267.748,177.072 267.196 C 176.592 266.644,175.392 265.204,174.405 263.996 C 173.419 262.788,172.500 261.710,172.365 261.600 C 168.593 258.536,151.002 232.282,145.511 221.521 C 144.130 218.815,142.865 216.540,142.700 216.467 C 142.535 216.393,142.400 216.106,142.400 215.828 C 142.400 215.550,142.150 214.800,141.844 214.161 C 141.538 213.523,141.019 212.370,140.691 211.600 C 139.383 208.527,138.687 206.947,138.156 205.839 C 137.850 205.200,137.600 204.381,137.600 204.019 C 137.600 203.656,137.455 203.189,137.277 202.980 C 137.100 202.771,136.552 201.340,136.059 199.800 C 133.268 191.066,132.062 185.176,131.616 178.097 L 131.319 173.400 131.260 177.894 M245.980 178.290 C 245.871 179.219,245.933 179.827,246.120 179.640 C 246.306 179.454,246.396 178.694,246.319 177.951 C 246.183 176.633,246.175 176.642,245.980 178.290 M245.264 181.267 C 245.229 181.854,245.084 182.664,244.941 183.067 C 244.743 183.629,244.796 183.695,245.170 183.351 C 245.444 183.099,245.586 182.309,245.493 181.551 C 245.359 180.453,245.316 180.400,245.264 181.267 M156.800 188.244 C 156.800 188.873,158.051 191.283,158.266 191.068 C 158.366 190.968,158.077 190.194,157.624 189.349 C 157.171 188.503,156.800 188.007,156.800 188.244 M242.255 189.455 C 241.876 190.249,241.648 190.981,241.749 191.082 C 241.849 191.183,242.241 190.614,242.618 189.818 C 242.996 189.022,243.223 188.290,243.124 188.191 C 243.025 188.091,242.633 188.660,242.255 189.455 M266.867 189.267 C 266.830 190.074,266.696 191.064,266.570 191.467 C 266.353 192.157,266.366 192.159,266.794 191.493 C 267.043 191.104,267.177 190.114,267.091 189.293 L 266.934 187.800 266.867 189.267 M265.822 193.822 C 265.672 194.625,265.628 195.362,265.726 195.460 C 265.824 195.557,266.027 194.981,266.178 194.178 C 266.328 193.375,266.372 192.638,266.274 192.540 C 266.176 192.443,265.973 193.019,265.822 193.822 M159.200 192.961 C 159.200 194.783,168.120 204.877,172.100 207.558 C 174.717 209.321,174.486 208.863,171.700 206.762 C 167.546 203.630,163.707 199.482,160.639 194.809 C 159.847 193.604,159.200 192.772,159.200 192.961 M239.037 195.400 C 238.676 195.950,238.537 196.400,238.727 196.400 C 238.916 196.400,239.277 195.950,239.527 195.400 C 239.778 194.850,239.917 194.400,239.837 194.400 C 239.757 194.400,239.397 194.850,239.037 195.400 M265.000 196.800 C 264.850 197.273,264.817 197.750,264.927 197.860 C 265.037 197.970,265.250 197.673,265.400 197.200 C 265.550 196.727,265.583 196.250,265.473 196.140 C 265.363 196.030,265.150 196.327,265.000 196.800 M236.030 199.363 C 234.908 200.772,233.344 202.494,232.553 203.188 C 231.763 203.882,231.194 204.527,231.289 204.622 C 231.514 204.848,236.377 199.781,237.548 198.100 C 239.070 195.917,238.188 196.650,236.030 199.363 M264.446 198.867 C 264.421 199.234,264.296 199.864,264.170 200.267 C 263.952 200.962,263.963 200.963,264.397 200.287 C 264.648 199.896,264.773 199.266,264.673 198.887 C 264.511 198.268,264.488 198.266,264.446 198.867 M228.800 206.470 C 227.289 207.817,227.225 207.926,228.400 207.151 C 230.019 206.082,230.959 205.226,230.747 205.014 C 230.666 204.932,229.789 205.588,228.800 206.470 M261.000 208.400 C 260.850 208.873,260.817 209.350,260.927 209.460 C 261.037 209.570,261.250 209.273,261.400 208.800 C 261.550 208.327,261.583 207.850,261.473 207.740 C 261.363 207.630,261.150 207.927,261.000 208.400 M175.200 209.564 C 175.750 210.014,176.380 210.383,176.600 210.385 C 177.028 210.388,176.305 209.834,175.000 209.160 C 174.469 208.885,174.536 209.021,175.200 209.564 M178.400 211.383 C 178.400 211.624,180.863 212.800,181.361 212.798 C 181.603 212.796,181.350 212.562,180.800 212.276 C 179.472 211.587,178.400 211.188,178.400 211.383 M219.200 212.134 C 216.552 213.445,212.660 214.800,211.539 214.800 C 211.001 214.800,210.389 214.954,210.180 215.143 C 209.971 215.331,208.056 215.691,205.923 215.943 C 197.827 216.898,192.743 216.371,184.802 213.752 C 183.153 213.208,181.983 212.934,182.202 213.142 C 183.722 214.590,194.032 216.778,199.400 216.793 C 203.076 216.802,209.072 216.118,210.095 215.571 C 210.477 215.367,211.197 215.197,211.695 215.194 C 212.622 215.188,215.189 214.382,217.500 213.369 C 221.070 211.806,221.600 211.549,221.600 211.381 C 221.600 211.051,221.019 211.233,219.200 212.134 M256.544 218.500 C 256.172 219.215,254.939 221.600,253.803 223.800 C 252.666 226.000,251.016 228.970,250.135 230.400 C 248.165 233.597,247.515 234.800,247.758 234.800 C 247.860 234.800,249.088 232.865,250.487 230.500 C 253.272 225.791,257.755 217.200,257.427 217.200 C 257.313 217.200,256.916 217.785,256.544 218.500 M246.614 236.235 C 246.241 236.804,246.005 237.338,246.089 237.422 C 246.173 237.507,246.558 237.041,246.944 236.388 C 247.806 234.928,247.548 234.809,246.614 236.235 M243.062 241.590 C 242.038 243.130,241.200 244.515,241.200 244.666 C 241.200 244.818,242.106 243.627,243.214 242.019 C 244.322 240.411,245.160 239.026,245.076 238.943 C 244.992 238.859,244.086 240.050,243.062 241.590 M234.843 253.024 C 232.997 255.503,231.101 257.952,230.632 258.466 C 230.162 258.980,229.363 260.030,228.857 260.800 L 227.937 262.200 229.195 260.800 C 231.681 258.035,238.598 248.848,238.349 248.641 C 238.267 248.573,236.689 250.545,234.843 253.024 M227.000 262.954 C 223.192 267.458,220.369 270.739,219.400 271.788 C 217.104 274.272,216.234 275.359,217.155 274.594 C 218.384 273.572,227.730 262.795,227.542 262.616 C 227.464 262.542,227.220 262.694,227.000 262.954 M207.981 283.652 C 204.561 287.143,201.863 290.000,201.986 290.000 C 202.109 290.000,205.085 287.120,208.600 283.600 C 212.115 280.080,214.813 277.223,214.595 277.252 C 214.378 277.281,211.401 280.161,207.981 283.652 " stroke="none" fill="#eca4c4" fill-rule="evenodd"></path></g></svg>